<?xml version="1.0" encoding="iso-8859-1"?>
<!-- Generator: Adobe Illustrator 19.0.0, SVG Export Plug-In . SVG Version: 6.00 Build 0)  -->
<svg version="1.1" id="Layer_1" xmlns="http://www.w3.org/2000/svg" xmlns:xlink="http://www.w3.org/1999/xlink" x="0px" y="0px"
	 viewBox="0 0 512 512" style="enable-background:new 0 0 512 512;" xml:space="preserve">
<g>
	<g>
		<path d="M272.412,214.625l-68.409-34.205c-2.256-1.13-4.915-1.13-7.171,0l-68.409,34.205c-2.715,1.359-4.432,4.133-4.432,7.17
			V332.96c0,4.428,3.588,8.017,8.017,8.017h51.307c4.428,0,8.017-3.588,8.017-8.017v-51.841h18.171v51.841
			c0.001,4.428,3.589,8.017,8.018,8.017h51.307c4.428,0,8.017-3.588,8.017-8.017V221.795
			C276.843,218.759,275.128,215.983,272.412,214.625z M260.81,324.944h-35.273v-51.841c0-4.428-3.588-8.017-8.017-8.017h-34.205
			c-4.428,0-8.017,3.588-8.017,8.017v51.841h-35.273v-98.193l60.392-30.196l60.392,30.196V324.944z"/>
	</g>
</g>
<g>
	<g>
		<path d="M298.32,197.656l-94.063-51.307c-2.394-1.305-5.284-1.305-7.679,0l-94.063,51.307c-3.886,2.12-5.319,6.99-3.198,10.877
			c2.12,3.885,6.988,5.321,10.877,3.198l90.223-49.213l90.223,49.213c1.22,0.665,2.534,0.981,3.832,0.98
			c2.839,0,5.589-1.511,7.045-4.178C303.637,204.645,302.206,199.776,298.32,197.656z"/>
	</g>
</g>
<g>
	<g>
		<path d="M480.218,316.655c-2.831-3.404-7.886-3.867-11.291-1.038c-3.404,2.83-3.868,7.886-1.038,11.291
			c15.349,18.456,23.802,41.863,23.802,65.91c0,56.876-46.272,103.148-103.148,103.148c-56.876,0-103.148-46.272-103.148-103.148
			c0-56.859,46.246-103.12,103.099-103.148c0.017,0,0.033,0.002,0.049,0.002c0.016,0,0.031-0.002,0.046-0.002
			c19.752,0.009,38.939,5.613,55.491,16.21c3.726,2.385,8.686,1.301,11.074-2.429c2.387-3.728,1.3-8.687-2.429-11.074
			c-16.9-10.82-36.172-17.131-56.165-18.466V66.806c0-13.261-10.789-24.05-24.05-24.05h-61.461V8.017
			c0-4.428-3.588-8.017-8.017-8.017h-34.205c-4.428,0-8.017,3.588-8.017,8.017v34.739h-35.273V8.017
			c0-4.428-3.588-8.017-8.017-8.017h-34.205c-4.428,0-8.017,3.588-8.017,8.017v34.739h-35.273V8.017
			c0-4.428-3.588-8.017-8.017-8.017H97.804c-4.428,0-8.017,3.588-8.017,8.017v34.739H28.326c-13.261,0-24.05,10.789-24.05,24.05
			v249.051c0,4.428,3.588,8.017,8.017,8.017c4.428,0,8.017-3.588,8.017-8.017v-197.21h222.864c4.428,0,8.017-3.588,8.017-8.017
			s-3.588-8.017-8.017-8.017H20.309V66.806c0-4.421,3.596-8.017,8.017-8.017h61.461v26.188c0,4.428,3.588,8.017,8.017,8.017h34.205
			c4.428,0,8.017-3.588,8.017-8.017V58.789h35.273v26.188c0,4.428,3.588,8.017,8.017,8.017h34.205c4.428,0,8.017-3.588,8.017-8.017
			V58.789h35.273v26.188c0,4.428,3.588,8.017,8.017,8.017h34.205c4.428,0,8.017-3.588,8.017-8.017V58.789h61.461
			c4.421,0,8.017,3.596,8.017,8.017v35.808h-94.597c-4.428,0-8.017,3.588-8.017,8.017s3.588,8.017,8.017,8.017h94.597v155.265
			c-61.993,4.139-111.165,55.884-111.165,118.906c0,0.179,0.006,0.356,0.006,0.534H28.326c-4.421,0-8.017-3.596-8.017-8.017v-26.722
			c0-4.428-3.588-8.017-8.017-8.017c-4.428,0-8.017,3.588-8.017,8.017v26.722c0,13.261,10.789,24.05,24.05,24.05h242.193
			C278.608,467.288,328.449,512,388.543,512c65.717,0,119.182-53.465,119.182-119.182
			C507.724,365.034,497.955,337.985,480.218,316.655z M123.992,76.96H105.82V16.033h18.171V76.96z M209.503,76.96h-18.171V16.033
			h18.171V76.96z M295.015,76.96h-18.171V16.033h18.171V76.96z"/>
	</g>
</g>
<g>
	<g>
		<path d="M388.543,307.841c-46.857,0-84.977,38.12-84.977,84.977c0,46.857,38.12,84.977,84.977,84.977
			c46.857,0,84.977-38.12,84.977-84.977C473.52,345.961,435.4,307.841,388.543,307.841z M388.543,461.762
			c-38.015,0-68.944-30.928-68.944-68.944s30.928-68.944,68.944-68.944s68.944,30.928,68.944,68.944
			S426.558,461.762,388.543,461.762z"/>
	</g>
</g>
<g>
	<g>
		<path d="M438.174,371.591c-2.28-3.798-7.203-5.027-10.999-2.75l-37.389,22.433l-29.778-29.778c-3.132-3.13-8.207-3.13-11.338,0
			c-3.131,3.132-3.131,8.207,0,11.338l34.205,34.205c2.573,2.571,6.672,3.077,9.793,1.206l42.756-25.653
			C439.22,380.311,440.451,375.388,438.174,371.591z"/>
	</g>
</g>
<g>
</g>
<g>
</g>
<g>
</g>
<g>
</g>
<g>
</g>
<g>
</g>
<g>
</g>
<g>
</g>
<g>
</g>
<g>
</g>
<g>
</g>
<g>
</g>
<g>
</g>
<g>
</g>
<g>
</g>
</svg>
